<svg xmlns="http://www.w3.org/2000/svg" viewBox="0 0 128 128"><linearGradient id="A" gradientUnits="userSpaceOnUse" x1="64" y1="7.034" x2="64" y2="120.789"><stop offset="0" stop-color="#4387fd"/><stop offset="1" stop-color="#4683ea"/></linearGradient><path d="M27.8 115.2L1.5 69.7a11.28 11.28 0 0 1 0-11.5l26.3-45.5c2.1-3.6 5.9-5.7 10-5.7h52.5c4.1 0 7.9 2.2 10 5.7l26.3 45.5a11.28 11.28 0 0 1 0 11.5l-26.3 45.5c-2.1 3.6-5.9 5.7-10 5.7H37.7c-4.1.1-7.9-2.1-9.9-5.7z" fill="url(#A)"/><path d="M119.2 86.5L80.6 47.9 64 43.4 49.1 49l-5.8 15 4.6 16.7 41 41 8.7-.4z" opacity=".07" enable-background="new"/><g fill="#fff"><path d="M64 40.8c-12.8 0-23.2 10.4-23.2 23.2S51.2 87.2 64 87.2 87.2 76.8 87.2 64 76.8 40.8 64 40.8m0 40.8c-9.7 0-17.6-7.9-17.6-17.6S54.3 46.4 64 46.4 81.6 54.3 81.6 64 73.7 81.6 64 81.6M53 63.1v7.2c1.1 1.8 2.6 3.4 4.4 4.5V63.1H53zm8.7-6.1v19.4c.7.1 1.5.2 2.3.2.7 0 1.4-.1 2.1-.2V57h-4.4zm9.1 9.1v8.6a14.15 14.15 0 0 0 4.4-4.7v-3.9h-4.4z"/><path d="M80.7 78.3l-2.4 2.4a1.09 1.09 0 0 0 0 1.5l9.1 9.1a1.09 1.09 0 0 0 1.5 0l2.4-2.4a1.09 1.09 0 0 0 0-1.5l-9.1-9.1a1.09 1.09 0 0 0-1.5 0"/></g></svg>